<svg width="64" height="64" viewBox="0 0 64 64" fill="none" xmlns="http://www.w3.org/2000/svg">
<circle cx="32" cy="32" r="32" fill="#E2F2A8"/>
<path d="M41.9909 20.1196C41.2599 20.1196 40.691 20.6882 40.691 21.4195C40.691 22.1504 41.2596 22.7193 41.9909 22.7193C42.7218 22.7193 43.2907 22.1507 43.2907 21.4195C43.2907 20.6882 42.6813 20.1196 41.9909 20.1196Z" fill="#203E28"/>
<path d="M50.1139 22.3536C50.1139 22.1505 49.9921 21.9474 49.8295 21.8255L46.8239 19.7135C46.2148 17.6422 45.1586 16.261 43.6154 15.6114C41.4223 14.6773 38.8634 15.4896 37.1168 16.5049C36.2637 16.9922 35.4923 17.6422 34.8016 18.3734L13.7222 41.9303C13.6817 41.9708 13.6409 42.0116 13.6409 42.0521C13.6004 42.0926 13.6004 42.1739 13.6004 42.2145V42.255V42.4173V42.4578C13.6004 42.4983 13.6004 42.5391 13.6409 42.6202V42.6607C13.6409 42.7012 13.6814 42.7012 13.6814 42.742C13.6814 42.7825 13.7219 42.7825 13.7219 42.8233C13.7625 42.8638 13.8033 42.8638 13.8033 42.9046L13.8438 42.9451C13.8843 42.9856 13.9251 42.9856 13.9656 43.0264C13.9656 43.0264 14.0061 43.0264 14.0061 43.0669C14.0874 43.0669 14.1279 43.1074 14.2092 43.1074L29.8063 43.108V47.6976C29.8063 48.0631 30.1312 48.388 30.4967 48.388C30.8622 48.388 31.1871 48.0631 31.1871 47.6976V43.0675H36.8731V47.6571C36.8731 48.0226 37.1981 48.3475 37.5635 48.3475C37.929 48.3475 38.254 48.0225 38.254 47.6571L38.2542 43.0269C44.6715 42.4583 46.5804 37.0159 47.149 33.8072C47.3521 32.8732 47.3927 31.0047 47.3927 31.0047V24.9532L49.8702 22.8819C50.0325 22.7598 50.1138 22.5566 50.1138 22.3535L50.1139 22.3536ZM27.085 29.0553C28.5067 27.4713 30.253 26.2936 32.2433 25.5624C34.0304 24.9125 36.1425 24.4657 37.6451 24.9125C38.376 25.1561 38.9041 25.5624 39.2291 26.2123C40.0413 27.8368 40.2039 29.299 39.7164 30.5175C38.9042 32.4669 36.5484 33.3605 36.5484 33.3605L16.6469 40.7119L27.085 29.0553ZM46.0118 31.5734C46.0118 31.9797 45.89 41.6866 37.1983 41.6866H18.1497L36.9952 34.7008C37.117 34.6603 39.9195 33.6854 40.9754 31.086C41.6253 29.4615 41.4627 27.6336 40.4473 25.6436C39.96 24.6282 39.1475 23.9783 38.0511 23.6129C35.9798 22.9629 33.2178 23.6942 31.1466 24.5064L35.6549 19.47C36.6297 18.3733 37.8479 17.4798 39.2291 16.9925C40.4476 16.5457 41.8689 16.3426 43.0875 16.8707C44.2247 17.358 45.0369 18.4547 45.5245 20.12C45.5245 20.2418 45.565 20.3636 45.6058 20.4449C45.8903 21.5821 46.0526 23.0038 46.0526 24.6283L46.0523 31.5734L46.0118 31.5734ZM47.3521 23.2066C47.3116 22.6785 47.2708 22.1912 47.1898 21.7039L48.2457 22.4349L47.3521 23.2066Z" fill="#203E28"/>
</svg>
