<svg width="64" height="64" viewBox="0 0 64 64" fill="none" xmlns="http://www.w3.org/2000/svg">
<circle cx="32" cy="32" r="32" fill="#E2F2A8"/>
<path d="M24.3921 26.6006C24.3993 26.2414 24.1858 25.9135 23.8546 25.7731C23.5227 25.6334 23.1394 25.7078 22.8856 25.963C22.7538 26.0947 22.6446 26.2024 22.5495 26.2949C22.3705 26.4705 22.2388 26.6006 22.1249 26.7281C19.7901 29.2811 18.7798 32.3679 18.9463 36.4406C19.1745 42.194 23.9105 46.8348 30.4623 47.7249C30.978 47.7948 31.5075 47.8305 32.036 47.8305C37.2779 47.8305 42.3304 44.4505 44.05 39.7938C46.0545 34.3733 43.9816 28.8598 38.6387 25.4051L38.2068 25.1274C37.1053 24.4225 36.065 23.7561 35.2279 22.892C33.8659 21.4904 33.3674 20.1516 33.6595 18.6822C33.7021 18.4692 33.7774 18.2392 33.8719 17.9492C33.9239 17.7909 33.9798 17.6204 34.0373 17.4319C34.1416 17.0896 34.0293 16.7187 33.7518 16.4923C33.4748 16.2654 33.0886 16.2288 32.7748 16.3975C26.1359 19.9746 25.7741 26.6012 26.4285 31.8662C25.0944 30.7704 24.3579 28.5767 24.3922 26.6003L24.3921 26.6006ZM27.3552 34.2334C27.6409 34.2945 27.938 34.2109 28.1486 34.009C28.3599 33.8075 28.458 33.5147 28.4098 33.2263C27.622 28.4593 27.3744 22.7151 31.8235 19.1303C31.7105 20.8887 32.4148 22.5284 33.9618 24.1206C34.9411 25.1307 36.1178 25.8842 37.2556 26.6134L37.6815 26.8862C42.2911 29.8678 44.0973 34.5795 42.3947 39.1826C40.9224 43.1716 36.5666 46.0657 32.0364 46.0657C31.5866 46.0657 31.1365 46.0356 30.6998 45.9766C24.9213 45.1916 20.9064 41.3308 20.7095 36.3691C20.5794 33.187 21.2478 30.7107 22.8092 28.6576C23.3109 31.2757 24.8406 33.6958 27.3553 34.2334L27.3552 34.2334Z" fill="#203E28"/>
</svg>
