<svg width="64" height="64" viewBox="0 0 64 64" fill="none" xmlns="http://www.w3.org/2000/svg">
<circle cx="32" cy="32" r="32" fill="#E2F2A8"/>
<path d="M45.0722 13.7651C45.0713 13.6592 45.0532 13.5576 45.0212 13.4624V13.4621C44.9699 13.3094 44.8814 13.1743 44.7675 13.0668L44.7665 13.0658C44.6716 12.9765 44.5593 12.906 44.434 12.8611H44.4337C44.4333 12.8611 44.4324 12.8608 44.4317 12.8608H44.4314C44.3326 12.8251 44.2264 12.8056 44.116 12.8046C33.2917 12.6776 25.8866 15.0642 22.1336 19.8983C19.1328 23.7645 18.4335 29.2061 20.0397 36.0765C17.2009 41.0702 16.8355 46.1918 18.9634 51.3982C19.1164 51.7731 19.4764 51.9998 19.8554 51.9998C19.9777 51.9998 20.102 51.9761 20.2218 51.9267C20.7144 51.7227 20.9492 51.1559 20.7464 50.6602C18.9569 46.2828 19.119 42.0252 21.2526 37.8233C23.8931 38.4989 26.3286 38.8397 28.5488 38.8397C32.3447 38.8397 35.5156 37.8529 38.0209 35.8841C42.8261 32.1069 45.1976 24.6662 45.0717 13.7651L45.0722 13.7651ZM36.835 34.3532C33.4529 37.0113 28.5497 37.5859 22.2553 36.0715C24.3634 32.7822 27.6929 29.5219 32.2597 26.2598C32.6942 25.9496 32.7962 25.3438 32.4879 24.9069C32.1796 24.4696 31.5775 24.367 31.1433 24.6772C26.9806 27.6504 23.7784 30.687 21.5323 33.7762C20.5854 28.3902 21.2937 24.13 23.6533 21.0915C26.9111 16.8946 33.4668 14.7595 43.1472 14.7394C43.1272 24.4787 41.0048 31.0756 36.8344 34.3536L36.835 34.3532Z" fill="#203E28"/>
</svg>
