<svg width="64" height="64" viewBox="0 0 64 64" fill="none" xmlns="http://www.w3.org/2000/svg">
<circle cx="32" cy="32" r="32" fill="#5F725D"/>
<path d="M47.0551 18.1065L32.0551 12.1065C31.6985 11.9645 31.3014 11.9645 30.9449 12.1065L15.9449 18.1065C15.666 18.2176 15.4266 18.4098 15.2581 18.6586C15.0897 18.9074 14.9997 19.201 15 19.5013V30.7513C15 41.8513 30.12 50.4459 30.7654 50.8068C30.9934 50.9384 31.2519 51.0077 31.5154 51.0077C31.7786 51.0077 32.0374 50.9384 32.2654 50.8068C32.8805 50.4465 48 41.8513 48 30.7513V19.5013C48.0003 19.201 47.9103 18.9074 47.7419 18.6586C47.5734 18.4098 47.334 18.2176 47.0551 18.1065H47.0551ZM44.9999 30.751C44.9999 38.851 34.41 45.961 31.4999 47.761C28.59 45.961 18 38.8665 18 30.751V20.521L31.4999 15.121L44.9999 20.521V30.751Z" fill="white"/>
<path d="M27.3269 28.977C26.9462 28.5966 26.3917 28.4479 25.8721 28.5872C25.3521 28.7265 24.9463 29.1323 24.807 29.6523C24.6677 30.172 24.8163 30.7264 25.1967 31.1071L29.6967 35.6071C29.9783 35.8911 30.3617 36.0508 30.7618 36.0508C31.1619 36.0508 31.5453 35.8911 31.8269 35.6071L39.2222 25.8862C39.6026 25.5055 39.7512 24.9511 39.612 24.4314C39.4727 23.9114 39.0669 23.5056 38.5469 23.3663C38.0272 23.227 37.4728 23.3757 37.092 23.756L30.7618 32.427L27.3269 28.977Z" fill="white"/>
</svg>
