<svg width="64" height="64" viewBox="0 0 64 64" fill="none" xmlns="http://www.w3.org/2000/svg">
<circle cx="32" cy="32" r="32" fill="#5F725D"/>
<mask id="path-2-outside-1_88_310" maskUnits="userSpaceOnUse" x="10" y="15" width="45" height="34" fill="black">
<rect fill="white" x="10" y="15" width="45" height="34"/>
<path d="M43.4099 48.4392C43.2984 48.4392 43.1889 48.4345 43.0828 48.4299C42.9924 48.4258 42.8983 48.4215 42.8005 48.4211C42.4949 48.4201 42.1872 48.4198 41.8795 48.4198L41.3019 48.4201C40.1293 48.4201 39.1259 47.5844 38.9149 46.4326C38.6919 45.2142 38.3414 44.8201 38.2068 44.8201C38.1974 44.8201 38.187 44.8208 38.1756 44.8225C37.889 44.8603 37.6423 44.8784 37.4196 44.8784C37.1605 44.8784 36.3713 44.8784 35.8894 44.2807C35.5801 43.897 35.5546 43.4701 35.5375 43.1879C35.5362 43.1641 35.5345 43.1353 35.5325 43.1079C35.3614 43.0208 35.188 42.9331 35.0149 42.845L34.9734 42.8239C34.8331 42.7553 34.6928 42.6866 34.5515 42.6177C34.2508 42.471 33.9468 42.3227 33.6354 42.167C33.0303 41.8674 32.6054 41.3943 32.2951 41.0487C32.2321 40.9787 32.1541 40.892 32.0922 40.8281H28.7342C28.2166 40.8281 27.7967 40.4082 27.7967 39.8905C27.7967 39.3729 28.2165 38.953 28.7342 38.953H32.3058C32.9329 38.953 33.335 39.4006 33.6899 39.7954C33.9219 40.0535 34.1847 40.3465 34.4707 40.4881C34.7794 40.6425 35.078 40.7881 35.3733 40.9321C35.5176 41.0024 35.6609 41.0724 35.8042 41.1427C35.8076 41.1444 35.8109 41.146 35.8146 41.1477L35.8615 41.1715C36.0781 41.2813 36.2951 41.3908 36.5144 41.503C37.2872 41.9061 37.3796 42.6306 37.4051 43.0026H37.4201C37.5581 43.0026 37.7295 42.9892 37.9291 42.9631C38.0208 42.9507 38.1149 42.9444 38.2073 42.9444C39.1087 42.9444 40.2832 43.4908 40.7599 46.094C40.8078 46.3548 41.0355 46.5444 41.3014 46.5444L41.8799 46.544C42.1896 46.544 42.499 46.5444 42.8087 46.5454C42.9386 46.546 43.0588 46.5514 43.1646 46.5557C43.25 46.5594 43.3324 46.5634 43.4104 46.5634C43.4583 46.5634 43.4901 46.5618 43.5105 46.5598C43.7998 46.318 43.9153 46.161 44.0091 46.0334C44.4581 45.4227 44.8813 45.3243 45.7197 45.3243C45.7793 45.3243 45.8429 45.3246 45.9112 45.3256C45.9929 45.3263 46.1147 45.3293 46.2537 45.333C46.4589 45.3383 46.6913 45.3447 46.8969 45.3447C46.9886 45.3447 47.0569 45.3434 47.1072 45.3417C47.2652 45.1652 47.5133 44.7658 47.6556 44.5368C47.745 44.3925 47.8294 44.2565 47.9121 44.1323C48.0748 43.8882 48.2328 43.6525 48.3865 43.4235C50.6392 40.0643 51.7812 38.3613 51.8044 33.9332C51.5988 33.4594 50.676 31.8891 49.0582 29.2595C48.8857 28.9792 48.7515 28.7612 48.6765 28.6367C48.6062 28.5205 48.5462 28.4187 48.4933 28.3293C48.3902 28.1552 48.2837 27.9751 48.2459 27.9363C48.204 27.9028 48.0008 27.808 47.8043 27.7163C47.5917 27.6172 47.3007 27.4812 46.9173 27.2894C46.7492 27.2053 46.6129 27.1407 46.4911 27.0841C46.022 26.8652 45.8187 26.3074 46.0377 25.8383C46.2564 25.3692 46.8142 25.166 47.2836 25.3849C47.4182 25.4475 47.5685 25.5189 47.7573 25.6133C48.1169 25.7934 48.3831 25.9176 48.5971 26.0174C49.4817 26.4302 49.6227 26.5568 50.1068 27.3744C50.1573 27.4601 50.2149 27.5572 50.2819 27.6681C50.3552 27.7896 50.4865 28.0029 50.6552 28.2774C53.68 33.1936 53.68 33.421 53.68 33.797C53.68 38.8974 52.2738 40.9944 49.944 44.4684C49.7914 44.6961 49.634 44.9305 49.4726 45.1729C49.407 45.2714 49.3303 45.3949 49.2489 45.5258C48.7842 46.2745 48.3038 47.049 47.5581 47.1809C47.4057 47.2083 47.2075 47.2201 46.8971 47.2201C46.6664 47.2201 46.41 47.2134 46.204 47.2077C46.0792 47.2043 45.9697 47.2013 45.892 47.201C45.6921 47.1983 45.5592 47.2006 45.4758 47.204C45.3355 47.3922 45.1062 47.6791 44.6471 48.0534C44.2196 48.3996 43.7361 48.4395 43.4096 48.4395L43.4099 48.4392ZM18.5236 45.8912H18.3033C17.1365 45.8912 16.5539 45.8828 16.0691 45.695C15.053 45.3016 15.053 44.3142 15.053 43.9429C15.053 43.7055 15.0694 43.4343 15.0881 43.1202C15.1139 42.691 15.1457 42.163 15.1491 41.5087C14.8822 40.7805 13.0893 37.2685 12.4863 36.0873C12.2934 35.7096 12.1424 35.414 12.0597 35.2489C11.3365 33.8025 11 32.6815 11 31.7206C11 29.1732 13.2825 28.4135 15.6989 27.6093C15.8676 27.553 16.04 27.4958 16.2148 27.4368C16.6049 27.2999 16.9859 27.1854 17.3542 27.0749C17.7239 26.9641 18.0731 26.8593 18.4056 26.7394C18.6108 26.6654 18.7772 26.6102 18.9112 26.5656C19.0227 26.5285 19.1475 26.4873 19.2038 26.4629C19.2634 26.3875 19.3886 26.1776 19.5212 25.9563L19.5313 25.9392C20.2742 24.6863 20.9693 23.5318 21.6751 22.3616C21.7588 22.2234 21.8332 22.0991 21.9062 21.9763C22.0026 21.8149 22.0974 21.6565 22.2062 21.4777C23.148 19.9175 23.9546 18.9478 25.0575 18.9478C25.6053 18.9478 26.0469 19.1905 26.4741 19.4252C26.9104 19.665 27.359 19.9114 28.0223 19.9887C28.1184 19.7299 28.2242 19.3723 28.2851 19.1664C28.336 18.9943 28.3839 18.8319 28.4291 18.6973C28.4629 18.5952 28.5051 18.4512 28.5496 18.2989C28.8557 17.2526 29.1724 16.1704 30.1501 16.1704C31.1569 16.1704 32.0579 16.1165 32.8531 16.0693C33.4772 16.0321 34.0159 16 34.4927 16C35.2618 16 35.7634 16.086 36.1698 16.2879C36.7896 16.5956 37.1311 17.1665 37.1311 17.8954C37.1311 18.4449 36.9476 19.0981 36.5361 20.0135C36.504 20.0852 36.4876 20.1605 36.4876 20.2375C36.4876 20.4495 36.6054 20.6393 36.7953 20.7324L39.5759 22.0964C39.6539 22.1346 39.7373 22.154 39.824 22.154C40.0012 22.154 40.1635 22.071 40.259 21.9324C40.6725 21.329 40.8295 20.5415 41.0113 19.6295C41.0843 19.2635 41.1596 18.8848 41.2571 18.4948C41.2869 18.3749 41.316 18.2346 41.3465 18.086C41.4124 17.7669 41.4804 17.4368 41.5892 17.1478C41.9086 16.2977 42.4878 16.1709 42.8046 16.1709C42.9513 16.1709 43.0852 16.1669 43.2031 16.1628C43.3099 16.1595 43.4046 16.1568 43.488 16.1568C44.7999 16.1568 44.8665 17.184 44.8665 17.39V19.7793C44.8665 19.9889 44.9773 20.1811 45.142 20.2574C45.6838 20.5082 46.0942 20.9515 46.3615 21.5746C46.5657 22.0503 46.3454 22.6014 45.8693 22.8057C45.3935 23.0099 44.8424 22.7896 44.6382 22.3135C44.5186 22.0349 44.4075 21.9834 44.3542 21.9586C43.5266 21.5752 42.9916 20.7198 42.9916 19.7789V19.3128C42.9413 19.5415 42.8955 19.7712 42.8506 19.9958C42.647 21.0167 42.4368 22.0724 41.8059 22.9925C41.3609 23.6414 40.6203 24.0288 39.8245 24.0288C39.4545 24.0288 39.0832 23.9427 38.7507 23.7793L35.9701 22.4153C35.133 22.0048 34.613 21.1701 34.613 20.2373C34.613 19.8938 34.6847 19.5596 34.826 19.2449C35.1678 18.4838 35.2442 18.1092 35.2545 17.9381C35.1491 17.9103 34.9294 17.8748 34.4925 17.8748C34.0716 17.8748 33.5586 17.9056 32.9647 17.9408C32.2606 17.9826 31.4765 18.0295 30.5975 18.0422C30.5071 18.2856 30.4067 18.6288 30.3491 18.8254C30.2999 18.9938 30.2534 19.1525 30.2082 19.2891C30.1727 19.3956 30.1291 19.5425 30.0829 19.6979C29.7498 20.8243 29.4351 21.8883 28.4621 21.8883C27.0632 21.8883 26.1655 21.3951 25.5712 21.0687C25.3968 20.9729 25.1614 20.8434 25.0663 20.8246C24.9806 20.8611 24.6324 21.0861 23.8087 22.4502C23.7005 22.6273 23.6088 22.781 23.5154 22.9377C23.4404 23.0632 23.3644 23.1905 23.2793 23.3307C22.5762 24.4966 21.8831 25.6477 21.1415 26.8979L21.1298 26.9177C20.5606 27.8699 20.4036 28.0444 19.5016 28.344C19.3713 28.3872 19.224 28.4365 19.0405 28.5024C18.6592 28.6397 18.2691 28.7565 17.8921 28.8697C17.5426 28.9745 17.181 29.083 16.8304 29.2066L16.8183 29.2106C16.6389 29.2712 16.4628 29.3298 16.29 29.3874C13.811 30.2127 12.8741 30.6276 12.8741 31.7197C12.8741 32.3606 13.1637 33.2652 13.7356 34.4083C13.8166 34.57 13.9653 34.8613 14.1555 35.2337C17.0236 40.8516 17.0236 41.0538 17.0236 41.3887C17.0236 42.1545 16.9877 42.7514 16.9589 43.2312C16.9419 43.5152 16.9271 43.7606 16.9271 43.9417C16.9271 43.9555 16.9271 43.9682 16.9275 43.9806C17.2379 44.0151 17.8171 44.0151 18.3029 44.0151H18.3033C18.5336 43.8188 18.9655 43.3491 19.2388 43.0518C20.2389 41.9636 20.7076 41.4825 21.3347 41.4825C22.1182 41.4825 22.7299 41.5186 23.2211 41.5474C23.5134 41.5648 23.7655 41.5795 23.9527 41.5795C23.9758 41.5795 23.9969 41.5792 24.016 41.5789C24.022 41.5307 24.0277 41.4701 24.0331 41.3951C24.0679 40.8784 24.5162 40.4877 25.0318 40.5228C25.5484 40.558 25.9388 41.005 25.9037 41.5216C25.8428 42.4216 25.5659 43.4545 23.9527 43.4545C23.7103 43.4545 23.4324 43.4381 23.1106 43.419C22.6914 43.3943 22.1802 43.3641 21.553 43.3584C21.3223 43.5553 20.8917 44.0237 20.6189 44.3207C19.6198 45.4103 19.151 45.8914 18.5239 45.8914L18.5236 45.8912Z"/>
</mask>
<path d="M43.4099 48.4392C43.2984 48.4392 43.1889 48.4345 43.0828 48.4299C42.9924 48.4258 42.8983 48.4215 42.8005 48.4211C42.4949 48.4201 42.1872 48.4198 41.8795 48.4198L41.3019 48.4201C40.1293 48.4201 39.1259 47.5844 38.9149 46.4326C38.6919 45.2142 38.3414 44.8201 38.2068 44.8201C38.1974 44.8201 38.187 44.8208 38.1756 44.8225C37.889 44.8603 37.6423 44.8784 37.4196 44.8784C37.1605 44.8784 36.3713 44.8784 35.8894 44.2807C35.5801 43.897 35.5546 43.4701 35.5375 43.1879C35.5362 43.1641 35.5345 43.1353 35.5325 43.1079C35.3614 43.0208 35.188 42.9331 35.0149 42.845L34.9734 42.8239C34.8331 42.7553 34.6928 42.6866 34.5515 42.6177C34.2508 42.471 33.9468 42.3227 33.6354 42.167C33.0303 41.8674 32.6054 41.3943 32.2951 41.0487C32.2321 40.9787 32.1541 40.892 32.0922 40.8281H28.7342C28.2166 40.8281 27.7967 40.4082 27.7967 39.8905C27.7967 39.3729 28.2165 38.953 28.7342 38.953H32.3058C32.9329 38.953 33.335 39.4006 33.6899 39.7954C33.9219 40.0535 34.1847 40.3465 34.4707 40.4881C34.7794 40.6425 35.078 40.7881 35.3733 40.9321C35.5176 41.0024 35.6609 41.0724 35.8042 41.1427C35.8076 41.1444 35.8109 41.146 35.8146 41.1477L35.8615 41.1715C36.0781 41.2813 36.2951 41.3908 36.5144 41.503C37.2872 41.9061 37.3796 42.6306 37.4051 43.0026H37.4201C37.5581 43.0026 37.7295 42.9892 37.9291 42.9631C38.0208 42.9507 38.1149 42.9444 38.2073 42.9444C39.1087 42.9444 40.2832 43.4908 40.7599 46.094C40.8078 46.3548 41.0355 46.5444 41.3014 46.5444L41.8799 46.544C42.1896 46.544 42.499 46.5444 42.8087 46.5454C42.9386 46.546 43.0588 46.5514 43.1646 46.5557C43.25 46.5594 43.3324 46.5634 43.4104 46.5634C43.4583 46.5634 43.4901 46.5618 43.5105 46.5598C43.7998 46.318 43.9153 46.161 44.0091 46.0334C44.4581 45.4227 44.8813 45.3243 45.7197 45.3243C45.7793 45.3243 45.8429 45.3246 45.9112 45.3256C45.9929 45.3263 46.1147 45.3293 46.2537 45.333C46.4589 45.3383 46.6913 45.3447 46.8969 45.3447C46.9886 45.3447 47.0569 45.3434 47.1072 45.3417C47.2652 45.1652 47.5133 44.7658 47.6556 44.5368C47.745 44.3925 47.8294 44.2565 47.9121 44.1323C48.0748 43.8882 48.2328 43.6525 48.3865 43.4235C50.6392 40.0643 51.7812 38.3613 51.8044 33.9332C51.5988 33.4594 50.676 31.8891 49.0582 29.2595C48.8857 28.9792 48.7515 28.7612 48.6765 28.6367C48.6062 28.5205 48.5462 28.4187 48.4933 28.3293C48.3902 28.1552 48.2837 27.9751 48.2459 27.9363C48.204 27.9028 48.0008 27.808 47.8043 27.7163C47.5917 27.6172 47.3007 27.4812 46.9173 27.2894C46.7492 27.2053 46.6129 27.1407 46.4911 27.0841C46.022 26.8652 45.8187 26.3074 46.0377 25.8383C46.2564 25.3692 46.8142 25.166 47.2836 25.3849C47.4182 25.4475 47.5685 25.5189 47.7573 25.6133C48.1169 25.7934 48.3831 25.9176 48.5971 26.0174C49.4817 26.4302 49.6227 26.5568 50.1068 27.3744C50.1573 27.4601 50.2149 27.5572 50.2819 27.6681C50.3552 27.7896 50.4865 28.0029 50.6552 28.2774C53.68 33.1936 53.68 33.421 53.68 33.797C53.68 38.8974 52.2738 40.9944 49.944 44.4684C49.7914 44.6961 49.634 44.9305 49.4726 45.1729C49.407 45.2714 49.3303 45.3949 49.2489 45.5258C48.7842 46.2745 48.3038 47.049 47.5581 47.1809C47.4057 47.2083 47.2075 47.2201 46.8971 47.2201C46.6664 47.2201 46.41 47.2134 46.204 47.2077C46.0792 47.2043 45.9697 47.2013 45.892 47.201C45.6921 47.1983 45.5592 47.2006 45.4758 47.204C45.3355 47.3922 45.1062 47.6791 44.6471 48.0534C44.2196 48.3996 43.7361 48.4395 43.4096 48.4395L43.4099 48.4392ZM18.5236 45.8912H18.3033C17.1365 45.8912 16.5539 45.8828 16.0691 45.695C15.053 45.3016 15.053 44.3142 15.053 43.9429C15.053 43.7055 15.0694 43.4343 15.0881 43.1202C15.1139 42.691 15.1457 42.163 15.1491 41.5087C14.8822 40.7805 13.0893 37.2685 12.4863 36.0873C12.2934 35.7096 12.1424 35.414 12.0597 35.2489C11.3365 33.8025 11 32.6815 11 31.7206C11 29.1732 13.2825 28.4135 15.6989 27.6093C15.8676 27.553 16.04 27.4958 16.2148 27.4368C16.6049 27.2999 16.9859 27.1854 17.3542 27.0749C17.7239 26.9641 18.0731 26.8593 18.4056 26.7394C18.6108 26.6654 18.7772 26.6102 18.9112 26.5656C19.0227 26.5285 19.1475 26.4873 19.2038 26.4629C19.2634 26.3875 19.3886 26.1776 19.5212 25.9563L19.5313 25.9392C20.2742 24.6863 20.9693 23.5318 21.6751 22.3616C21.7588 22.2234 21.8332 22.0991 21.9062 21.9763C22.0026 21.8149 22.0974 21.6565 22.2062 21.4777C23.148 19.9175 23.9546 18.9478 25.0575 18.9478C25.6053 18.9478 26.0469 19.1905 26.4741 19.4252C26.9104 19.665 27.359 19.9114 28.0223 19.9887C28.1184 19.7299 28.2242 19.3723 28.2851 19.1664C28.336 18.9943 28.3839 18.8319 28.4291 18.6973C28.4629 18.5952 28.5051 18.4512 28.5496 18.2989C28.8557 17.2526 29.1724 16.1704 30.1501 16.1704C31.1569 16.1704 32.0579 16.1165 32.8531 16.0693C33.4772 16.0321 34.0159 16 34.4927 16C35.2618 16 35.7634 16.086 36.1698 16.2879C36.7896 16.5956 37.1311 17.1665 37.1311 17.8954C37.1311 18.4449 36.9476 19.0981 36.5361 20.0135C36.504 20.0852 36.4876 20.1605 36.4876 20.2375C36.4876 20.4495 36.6054 20.6393 36.7953 20.7324L39.5759 22.0964C39.6539 22.1346 39.7373 22.154 39.824 22.154C40.0012 22.154 40.1635 22.071 40.259 21.9324C40.6725 21.329 40.8295 20.5415 41.0113 19.6295C41.0843 19.2635 41.1596 18.8848 41.2571 18.4948C41.2869 18.3749 41.316 18.2346 41.3465 18.086C41.4124 17.7669 41.4804 17.4368 41.5892 17.1478C41.9086 16.2977 42.4878 16.1709 42.8046 16.1709C42.9513 16.1709 43.0852 16.1669 43.2031 16.1628C43.3099 16.1595 43.4046 16.1568 43.488 16.1568C44.7999 16.1568 44.8665 17.184 44.8665 17.39V19.7793C44.8665 19.9889 44.9773 20.1811 45.142 20.2574C45.6838 20.5082 46.0942 20.9515 46.3615 21.5746C46.5657 22.0503 46.3454 22.6014 45.8693 22.8057C45.3935 23.0099 44.8424 22.7896 44.6382 22.3135C44.5186 22.0349 44.4075 21.9834 44.3542 21.9586C43.5266 21.5752 42.9916 20.7198 42.9916 19.7789V19.3128C42.9413 19.5415 42.8955 19.7712 42.8506 19.9958C42.647 21.0167 42.4368 22.0724 41.8059 22.9925C41.3609 23.6414 40.6203 24.0288 39.8245 24.0288C39.4545 24.0288 39.0832 23.9427 38.7507 23.7793L35.9701 22.4153C35.133 22.0048 34.613 21.1701 34.613 20.2373C34.613 19.8938 34.6847 19.5596 34.826 19.2449C35.1678 18.4838 35.2442 18.1092 35.2545 17.9381C35.1491 17.9103 34.9294 17.8748 34.4925 17.8748C34.0716 17.8748 33.5586 17.9056 32.9647 17.9408C32.2606 17.9826 31.4765 18.0295 30.5975 18.0422C30.5071 18.2856 30.4067 18.6288 30.3491 18.8254C30.2999 18.9938 30.2534 19.1525 30.2082 19.2891C30.1727 19.3956 30.1291 19.5425 30.0829 19.6979C29.7498 20.8243 29.4351 21.8883 28.4621 21.8883C27.0632 21.8883 26.1655 21.3951 25.5712 21.0687C25.3968 20.9729 25.1614 20.8434 25.0663 20.8246C24.9806 20.8611 24.6324 21.0861 23.8087 22.4502C23.7005 22.6273 23.6088 22.781 23.5154 22.9377C23.4404 23.0632 23.3644 23.1905 23.2793 23.3307C22.5762 24.4966 21.8831 25.6477 21.1415 26.8979L21.1298 26.9177C20.5606 27.8699 20.4036 28.0444 19.5016 28.344C19.3713 28.3872 19.224 28.4365 19.0405 28.5024C18.6592 28.6397 18.2691 28.7565 17.8921 28.8697C17.5426 28.9745 17.181 29.083 16.8304 29.2066L16.8183 29.2106C16.6389 29.2712 16.4628 29.3298 16.29 29.3874C13.811 30.2127 12.8741 30.6276 12.8741 31.7197C12.8741 32.3606 13.1637 33.2652 13.7356 34.4083C13.8166 34.57 13.9653 34.8613 14.1555 35.2337C17.0236 40.8516 17.0236 41.0538 17.0236 41.3887C17.0236 42.1545 16.9877 42.7514 16.9589 43.2312C16.9419 43.5152 16.9271 43.7606 16.9271 43.9417C16.9271 43.9555 16.9271 43.9682 16.9275 43.9806C17.2379 44.0151 17.8171 44.0151 18.3029 44.0151H18.3033C18.5336 43.8188 18.9655 43.3491 19.2388 43.0518C20.2389 41.9636 20.7076 41.4825 21.3347 41.4825C22.1182 41.4825 22.7299 41.5186 23.2211 41.5474C23.5134 41.5648 23.7655 41.5795 23.9527 41.5795C23.9758 41.5795 23.9969 41.5792 24.016 41.5789C24.022 41.5307 24.0277 41.4701 24.0331 41.3951C24.0679 40.8784 24.5162 40.4877 25.0318 40.5228C25.5484 40.558 25.9388 41.005 25.9037 41.5216C25.8428 42.4216 25.5659 43.4545 23.9527 43.4545C23.7103 43.4545 23.4324 43.4381 23.1106 43.419C22.6914 43.3943 22.1802 43.3641 21.553 43.3584C21.3223 43.5553 20.8917 44.0237 20.6189 44.3207C19.6198 45.4103 19.151 45.8914 18.5239 45.8914L18.5236 45.8912Z" fill="white"/>
<path d="M43.4099 48.4392C43.2984 48.4392 43.1889 48.4345 43.0828 48.4299C42.9924 48.4258 42.8983 48.4215 42.8005 48.4211C42.4949 48.4201 42.1872 48.4198 41.8795 48.4198L41.3019 48.4201C40.1293 48.4201 39.1259 47.5844 38.9149 46.4326C38.6919 45.2142 38.3414 44.8201 38.2068 44.8201C38.1974 44.8201 38.187 44.8208 38.1756 44.8225C37.889 44.8603 37.6423 44.8784 37.4196 44.8784C37.1605 44.8784 36.3713 44.8784 35.8894 44.2807C35.5801 43.897 35.5546 43.4701 35.5375 43.1879C35.5362 43.1641 35.5345 43.1353 35.5325 43.1079C35.3614 43.0208 35.188 42.9331 35.0149 42.845L34.9734 42.8239C34.8331 42.7553 34.6928 42.6866 34.5515 42.6177C34.2508 42.471 33.9468 42.3227 33.6354 42.167C33.0303 41.8674 32.6054 41.3943 32.2951 41.0487C32.2321 40.9787 32.1541 40.892 32.0922 40.8281H28.7342C28.2166 40.8281 27.7967 40.4082 27.7967 39.8905C27.7967 39.3729 28.2165 38.953 28.7342 38.953H32.3058C32.9329 38.953 33.335 39.4006 33.6899 39.7954C33.9219 40.0535 34.1847 40.3465 34.4707 40.4881C34.7794 40.6425 35.078 40.7881 35.3733 40.9321C35.5176 41.0024 35.6609 41.0724 35.8042 41.1427C35.8076 41.1444 35.8109 41.146 35.8146 41.1477L35.8615 41.1715C36.0781 41.2813 36.2951 41.3908 36.5144 41.503C37.2872 41.9061 37.3796 42.6306 37.4051 43.0026H37.4201C37.5581 43.0026 37.7295 42.9892 37.9291 42.9631C38.0208 42.9507 38.1149 42.9444 38.2073 42.9444C39.1087 42.9444 40.2832 43.4908 40.7599 46.094C40.8078 46.3548 41.0355 46.5444 41.3014 46.5444L41.8799 46.544C42.1896 46.544 42.499 46.5444 42.8087 46.5454C42.9386 46.546 43.0588 46.5514 43.1646 46.5557C43.25 46.5594 43.3324 46.5634 43.4104 46.5634C43.4583 46.5634 43.4901 46.5618 43.5105 46.5598C43.7998 46.318 43.9153 46.161 44.0091 46.0334C44.4581 45.4227 44.8813 45.3243 45.7197 45.3243C45.7793 45.3243 45.8429 45.3246 45.9112 45.3256C45.9929 45.3263 46.1147 45.3293 46.2537 45.333C46.4589 45.3383 46.6913 45.3447 46.8969 45.3447C46.9886 45.3447 47.0569 45.3434 47.1072 45.3417C47.2652 45.1652 47.5133 44.7658 47.6556 44.5368C47.745 44.3925 47.8294 44.2565 47.9121 44.1323C48.0748 43.8882 48.2328 43.6525 48.3865 43.4235C50.6392 40.0643 51.7812 38.3613 51.8044 33.9332C51.5988 33.4594 50.676 31.8891 49.0582 29.2595C48.8857 28.9792 48.7515 28.7612 48.6765 28.6367C48.6062 28.5205 48.5462 28.4187 48.4933 28.3293C48.3902 28.1552 48.2837 27.9751 48.2459 27.9363C48.204 27.9028 48.0008 27.808 47.8043 27.7163C47.5917 27.6172 47.3007 27.4812 46.9173 27.2894C46.7492 27.2053 46.6129 27.1407 46.4911 27.0841C46.022 26.8652 45.8187 26.3074 46.0377 25.8383C46.2564 25.3692 46.8142 25.166 47.2836 25.3849C47.4182 25.4475 47.5685 25.5189 47.7573 25.6133C48.1169 25.7934 48.3831 25.9176 48.5971 26.0174C49.4817 26.4302 49.6227 26.5568 50.1068 27.3744C50.1573 27.4601 50.2149 27.5572 50.2819 27.6681C50.3552 27.7896 50.4865 28.0029 50.6552 28.2774C53.68 33.1936 53.68 33.421 53.68 33.797C53.68 38.8974 52.2738 40.9944 49.944 44.4684C49.7914 44.6961 49.634 44.9305 49.4726 45.1729C49.407 45.2714 49.3303 45.3949 49.2489 45.5258C48.7842 46.2745 48.3038 47.049 47.5581 47.1809C47.4057 47.2083 47.2075 47.2201 46.8971 47.2201C46.6664 47.2201 46.41 47.2134 46.204 47.2077C46.0792 47.2043 45.9697 47.2013 45.892 47.201C45.6921 47.1983 45.5592 47.2006 45.4758 47.204C45.3355 47.3922 45.1062 47.6791 44.6471 48.0534C44.2196 48.3996 43.7361 48.4395 43.4096 48.4395L43.4099 48.4392ZM18.5236 45.8912H18.3033C17.1365 45.8912 16.5539 45.8828 16.0691 45.695C15.053 45.3016 15.053 44.3142 15.053 43.9429C15.053 43.7055 15.0694 43.4343 15.0881 43.1202C15.1139 42.691 15.1457 42.163 15.1491 41.5087C14.8822 40.7805 13.0893 37.2685 12.4863 36.0873C12.2934 35.7096 12.1424 35.414 12.0597 35.2489C11.3365 33.8025 11 32.6815 11 31.7206C11 29.1732 13.2825 28.4135 15.6989 27.6093C15.8676 27.553 16.04 27.4958 16.2148 27.4368C16.6049 27.2999 16.9859 27.1854 17.3542 27.0749C17.7239 26.9641 18.0731 26.8593 18.4056 26.7394C18.6108 26.6654 18.7772 26.6102 18.9112 26.5656C19.0227 26.5285 19.1475 26.4873 19.2038 26.4629C19.2634 26.3875 19.3886 26.1776 19.5212 25.9563L19.5313 25.9392C20.2742 24.6863 20.9693 23.5318 21.6751 22.3616C21.7588 22.2234 21.8332 22.0991 21.9062 21.9763C22.0026 21.8149 22.0974 21.6565 22.2062 21.4777C23.148 19.9175 23.9546 18.9478 25.0575 18.9478C25.6053 18.9478 26.0469 19.1905 26.4741 19.4252C26.9104 19.665 27.359 19.9114 28.0223 19.9887C28.1184 19.7299 28.2242 19.3723 28.2851 19.1664C28.336 18.9943 28.3839 18.8319 28.4291 18.6973C28.4629 18.5952 28.5051 18.4512 28.5496 18.2989C28.8557 17.2526 29.1724 16.1704 30.1501 16.1704C31.1569 16.1704 32.0579 16.1165 32.8531 16.0693C33.4772 16.0321 34.0159 16 34.4927 16C35.2618 16 35.7634 16.086 36.1698 16.2879C36.7896 16.5956 37.1311 17.1665 37.1311 17.8954C37.1311 18.4449 36.9476 19.0981 36.5361 20.0135C36.504 20.0852 36.4876 20.1605 36.4876 20.2375C36.4876 20.4495 36.6054 20.6393 36.7953 20.7324L39.5759 22.0964C39.6539 22.1346 39.7373 22.154 39.824 22.154C40.0012 22.154 40.1635 22.071 40.259 21.9324C40.6725 21.329 40.8295 20.5415 41.0113 19.6295C41.0843 19.2635 41.1596 18.8848 41.2571 18.4948C41.2869 18.3749 41.316 18.2346 41.3465 18.086C41.4124 17.7669 41.4804 17.4368 41.5892 17.1478C41.9086 16.2977 42.4878 16.1709 42.8046 16.1709C42.9513 16.1709 43.0852 16.1669 43.2031 16.1628C43.3099 16.1595 43.4046 16.1568 43.488 16.1568C44.7999 16.1568 44.8665 17.184 44.8665 17.39V19.7793C44.8665 19.9889 44.9773 20.1811 45.142 20.2574C45.6838 20.5082 46.0942 20.9515 46.3615 21.5746C46.5657 22.0503 46.3454 22.6014 45.8693 22.8057C45.3935 23.0099 44.8424 22.7896 44.6382 22.3135C44.5186 22.0349 44.4075 21.9834 44.3542 21.9586C43.5266 21.5752 42.9916 20.7198 42.9916 19.7789V19.3128C42.9413 19.5415 42.8955 19.7712 42.8506 19.9958C42.647 21.0167 42.4368 22.0724 41.8059 22.9925C41.3609 23.6414 40.6203 24.0288 39.8245 24.0288C39.4545 24.0288 39.0832 23.9427 38.7507 23.7793L35.9701 22.4153C35.133 22.0048 34.613 21.1701 34.613 20.2373C34.613 19.8938 34.6847 19.5596 34.826 19.2449C35.1678 18.4838 35.2442 18.1092 35.2545 17.9381C35.1491 17.9103 34.9294 17.8748 34.4925 17.8748C34.0716 17.8748 33.5586 17.9056 32.9647 17.9408C32.2606 17.9826 31.4765 18.0295 30.5975 18.0422C30.5071 18.2856 30.4067 18.6288 30.3491 18.8254C30.2999 18.9938 30.2534 19.1525 30.2082 19.2891C30.1727 19.3956 30.1291 19.5425 30.0829 19.6979C29.7498 20.8243 29.4351 21.8883 28.4621 21.8883C27.0632 21.8883 26.1655 21.3951 25.5712 21.0687C25.3968 20.9729 25.1614 20.8434 25.0663 20.8246C24.9806 20.8611 24.6324 21.0861 23.8087 22.4502C23.7005 22.6273 23.6088 22.781 23.5154 22.9377C23.4404 23.0632 23.3644 23.1905 23.2793 23.3307C22.5762 24.4966 21.8831 25.6477 21.1415 26.8979L21.1298 26.9177C20.5606 27.8699 20.4036 28.0444 19.5016 28.344C19.3713 28.3872 19.224 28.4365 19.0405 28.5024C18.6592 28.6397 18.2691 28.7565 17.8921 28.8697C17.5426 28.9745 17.181 29.083 16.8304 29.2066L16.8183 29.2106C16.6389 29.2712 16.4628 29.3298 16.29 29.3874C13.811 30.2127 12.8741 30.6276 12.8741 31.7197C12.8741 32.3606 13.1637 33.2652 13.7356 34.4083C13.8166 34.57 13.9653 34.8613 14.1555 35.2337C17.0236 40.8516 17.0236 41.0538 17.0236 41.3887C17.0236 42.1545 16.9877 42.7514 16.9589 43.2312C16.9419 43.5152 16.9271 43.7606 16.9271 43.9417C16.9271 43.9555 16.9271 43.9682 16.9275 43.9806C17.2379 44.0151 17.8171 44.0151 18.3029 44.0151H18.3033C18.5336 43.8188 18.9655 43.3491 19.2388 43.0518C20.2389 41.9636 20.7076 41.4825 21.3347 41.4825C22.1182 41.4825 22.7299 41.5186 23.2211 41.5474C23.5134 41.5648 23.7655 41.5795 23.9527 41.5795C23.9758 41.5795 23.9969 41.5792 24.016 41.5789C24.022 41.5307 24.0277 41.4701 24.0331 41.3951C24.0679 40.8784 24.5162 40.4877 25.0318 40.5228C25.5484 40.558 25.9388 41.005 25.9037 41.5216C25.8428 42.4216 25.5659 43.4545 23.9527 43.4545C23.7103 43.4545 23.4324 43.4381 23.1106 43.419C22.6914 43.3943 22.1802 43.3641 21.553 43.3584C21.3223 43.5553 20.8917 44.0237 20.6189 44.3207C19.6198 45.4103 19.151 45.8914 18.5239 45.8914L18.5236 45.8912Z" stroke="white" mask="url(#path-2-outside-1_88_310)"/>
</svg>
