<svg width="64" height="64" viewBox="0 0 64 64" fill="none" xmlns="http://www.w3.org/2000/svg">
<circle cx="32" cy="32" r="32" fill="#5F725D"/>
<path d="M15.9763 25.0356H12.6643C11.9444 25.0356 11.3682 25.6115 11.3682 26.3317C11.3682 27.0516 11.9441 27.6278 12.6643 27.6278H15.9763C16.6962 27.6278 17.2724 27.0519 17.2724 26.3317C17.2724 25.6115 16.6965 25.0356 15.9763 25.0356Z" fill="white"/>
<path d="M15.9763 31.1318H10.4565C9.73662 31.1318 9.1604 31.7081 9.1604 32.4279C9.1604 33.1478 9.7363 33.724 10.4565 33.724H15.9763C16.6962 33.724 17.2724 33.1481 17.2724 32.4279C17.2724 31.7081 16.6965 31.1318 15.9763 31.1318Z" fill="white"/>
<path d="M15.9763 37.1797H8.29609C7.57622 37.1797 7 37.7556 7 38.4758C7 39.1956 7.5759 39.7719 8.29609 39.7719H15.9763C16.6961 39.7719 17.2723 39.196 17.2723 38.4758C17.2723 37.7556 16.6964 37.1797 15.9763 37.1797Z" fill="white"/>
<path d="M51.8324 22.8757L37.2404 16.108C36.9042 15.964 36.4723 15.964 36.1364 16.108L21.5444 22.8757C21.0643 23.0676 20.7764 23.5477 20.7764 24.0757V40.8277C20.7764 41.3557 21.0643 41.7876 21.5444 42.0277L36.1364 48.7476C36.4726 48.8915 36.9045 48.8915 37.2404 48.7476L51.8324 41.9795C52.3125 41.7876 52.6004 41.3075 52.6004 40.7795V24.0755C52.6004 23.5475 52.3125 23.1156 51.8324 22.8755V22.8757ZM35.3684 45.5317L23.3684 39.9636V26.0916L27.7844 28.1555V35.8356C27.7844 36.5555 28.3603 37.1317 29.0804 37.1317C29.8003 37.1317 30.3765 36.5558 30.3765 35.8356L30.3762 29.3558L35.368 31.6597L35.3684 45.5317ZM36.7124 29.4037L32.2485 27.3399L37.0485 25.1317C37.7205 24.8438 38.0084 24.0757 37.6726 23.4037C37.3847 22.7317 36.6166 22.4438 35.9446 22.7796L29.1765 25.9477L25.2404 24.1236L36.7604 18.7956L48.2804 24.1236L36.7124 29.4037ZM50.0084 39.9637L38.0084 45.5318V31.6598L50.0084 26.0917V39.9637Z" fill="white"/>
<path d="M41.7042 35.7398C41.896 35.7398 42.0882 35.6919 42.2322 35.5958L46.7921 33.4837C47.4641 33.1958 47.752 32.4277 47.4162 31.7557C47.1283 31.0838 46.3602 30.7958 45.6882 31.1316L41.1283 33.2437C40.4563 33.5317 40.1684 34.2997 40.5042 34.9717C40.7443 35.4519 41.2244 35.7398 41.7042 35.7398H41.7042Z" fill="white"/>
<path d="M41.7042 40.6358C41.896 40.6358 42.0882 40.5879 42.2322 40.4918L46.7921 38.3797C47.4641 38.0918 47.752 37.3237 47.4162 36.6517C47.1283 35.9798 46.3602 35.6918 45.6882 36.0276L41.1283 38.1397C40.4563 38.4277 40.1684 39.1957 40.5042 39.8677C40.7443 40.3475 41.2244 40.6358 41.7042 40.6358H41.7042Z" fill="white"/>
</svg>
