<svg width="145" height="118" viewBox="0 0 145 118" fill="none" xmlns="http://www.w3.org/2000/svg">
<path d="M92.0619 54.2532C97.9267 67.6756 106.629 76.9875 122.504 82.9929C122.406 82.7623 122.313 82.5299 122.212 82.2993C118.289 73.7162 113.149 65.3948 107.732 57.1849C100.79 46.6993 93.3645 36.3588 86.3426 25.8495C86.054 25.421 86.1332 24.9408 86.5215 24.7638C86.9097 24.5867 87.4689 24.7728 87.787 25.1877C87.8878 25.322 87.9931 25.4527 88.0938 25.5871C95.3328 35.7405 102.937 45.7325 110.082 55.8699C115.767 63.9636 121.178 72.1734 125.383 80.6705C127.393 84.9326 129.241 89.2399 130.315 93.6272C130.563 94.7247 130.974 95.8059 131.093 96.9107L131.605 100.204C131.744 100.973 131.746 101.745 131.762 102.515C131.361 102.281 130.97 102.029 130.565 101.801C127.268 100.005 123.848 98.4312 120.371 97.0025C117.249 86.4441 106.01 76.8089 79.623 74.8555C55.2591 73.0517 32.5725 58.3095 -3.30584e-06 56.4539C19.9084 62.1512 50.3802 89.2209 63.2034 96.5017C77.8819 104.836 94.1329 107.523 112.143 103.197C111.532 102.909 110.928 102.612 110.31 102.33C100.514 97.8996 90.0117 94.2348 79.5453 90.4785C66.1686 85.6982 52.7338 80.769 40.1743 74.6132C39.6604 74.3645 39.4306 73.9224 39.657 73.611C39.8822 73.3015 40.4776 73.2325 41.004 73.4558C41.0119 73.4594 41.0199 73.4621 41.0289 73.4658C41.055 73.4785 41.0708 73.4966 41.0991 73.5084C53.9247 79.3038 67.5675 83.8507 81.1453 88.2471C91.7702 91.7048 102.429 95.0689 112.414 99.2194C117.396 101.296 122.159 103.622 126.498 106.276C130.777 108.973 134.635 112.009 137.508 115.517C138.297 116.399 139.114 116.91 140.093 117.066C141.056 117.226 142.106 117.06 143.073 116.617C144.04 116.175 144.727 115.538 144.934 114.72C145.132 113.913 144.912 112.882 143.904 111.863C142.56 110.41 141.059 109.084 139.499 107.817C139.563 107.533 139.601 107.228 139.609 106.893C139.698 105.645 139.542 104.411 139.407 103.177C139.243 101.949 139.227 100.702 138.933 99.4972L138.122 95.8771C137.897 94.6616 137.388 93.5141 137.034 92.3322C135.961 88.9607 134.492 85.7228 132.869 82.5565C136.108 71.2955 133.197 62.619 118.957 44.3608C106.01 27.7649 88.3201 15.8419 67.9333 -0.000101564C80.0492 13.8905 86.8636 42.3623 92.0595 54.2537L92.0619 54.2532Z" fill="#5F725D" fill-opacity="0.25"/>
</svg>
