<svg width="64" height="64" viewBox="0 0 64 64" fill="none" xmlns="http://www.w3.org/2000/svg">
<g filter="url(#filter0_d_90_336)">
<circle cx="32" cy="30" r="28" transform="rotate(-180 32 30)" fill="white"/>
</g>
<path d="M41 31C41.5523 31 42 30.5523 42 30C42 29.4477 41.5523 29 41 29L41 31ZM24.2929 29.2929C23.9024 29.6834 23.9024 30.3166 24.2929 30.7071L30.6569 37.0711C31.0474 37.4616 31.6805 37.4616 32.0711 37.0711C32.4616 36.6805 32.4616 36.0474 32.0711 35.6569L26.4142 30L32.0711 24.3431C32.4616 23.9526 32.4616 23.3195 32.0711 22.9289C31.6805 22.5384 31.0474 22.5384 30.6569 22.9289L24.2929 29.2929ZM41 29L25 29L25 31L41 31L41 29Z" fill="#5F725D"/>
<defs>
<filter id="filter0_d_90_336" x="0" y="0" width="64" height="64" filterUnits="userSpaceOnUse" color-interpolation-filters="sRGB">
<feFlood flood-opacity="0" result="BackgroundImageFix"/>
<feColorMatrix in="SourceAlpha" type="matrix" values="0 0 0 0 0 0 0 0 0 0 0 0 0 0 0 0 0 0 127 0" result="hardAlpha"/>
<feOffset dy="2"/>
<feGaussianBlur stdDeviation="2"/>
<feComposite in2="hardAlpha" operator="out"/>
<feColorMatrix type="matrix" values="0 0 0 0 0 0 0 0 0 0 0 0 0 0 0 0 0 0 0.1 0"/>
<feBlend mode="normal" in2="BackgroundImageFix" result="effect1_dropShadow_90_336"/>
<feBlend mode="normal" in="SourceGraphic" in2="effect1_dropShadow_90_336" result="shape"/>
</filter>
</defs>
</svg>
