<svg width="149" height="80" viewBox="0 0 149 80" fill="none" xmlns="http://www.w3.org/2000/svg">
<path d="M0 0H148.384V80H0V0Z" fill="white"/>
<path d="M19.7038 32.6863C19.3673 32.0707 18.9046 31.6019 18.3157 31.2801C17.7268 30.9583 17.0397 30.7974 16.2545 30.7974C15.3852 30.7974 14.6141 30.9933 13.941 31.3851C13.268 31.7768 12.7422 32.3365 12.3637 33.0641C11.9851 33.7916 11.7958 34.6311 11.7958 35.5826C11.7958 36.562 11.9851 37.4155 12.3637 38.143C12.7563 38.8706 13.2961 39.4303 13.9831 39.822C14.6702 40.2138 15.4694 40.4097 16.3807 40.4097C17.5024 40.4097 18.4208 40.1158 19.1359 39.5282C19.851 38.9266 20.3207 38.0941 20.545 37.0307H15.4974V34.785H23.4474V37.3455C23.2511 38.3669 22.8305 39.3113 22.1855 40.1788C21.5406 41.0463 20.7063 41.7459 19.6827 42.2776C18.6732 42.7952 17.5375 43.0541 16.2756 43.0541C14.8594 43.0541 13.5765 42.7393 12.4268 42.1097C11.291 41.466 10.3937 40.5776 9.73468 39.4443C9.0897 38.3109 8.76721 37.0237 8.76721 35.5826C8.76721 34.1414 9.0897 32.8542 9.73468 31.7209C10.3937 30.5736 11.291 29.6851 12.4268 29.0555C13.5765 28.4119 14.8524 28.09 16.2545 28.09C17.9091 28.09 19.3462 28.4958 20.5661 29.3073C21.7859 30.1048 22.6272 31.2312 23.0899 32.6863H19.7038Z" fill="#203E28"/>
<path d="M36.6255 31.3011V42.9282H33.66V41.459C33.2815 41.9627 32.7837 42.3615 32.1668 42.6553C31.5639 42.9352 30.9049 43.0751 30.1898 43.0751C29.2784 43.0751 28.4722 42.8862 27.7711 42.5084C27.0701 42.1167 26.5162 41.55 26.1096 40.8084C25.717 40.0529 25.5207 39.1574 25.5207 38.122V31.3011H28.4652V37.7023C28.4652 38.6257 28.6965 39.3393 29.1592 39.843C29.6219 40.3327 30.2529 40.5776 31.0521 40.5776C31.8653 40.5776 32.5033 40.3327 32.966 39.843C33.4287 39.3393 33.66 38.6257 33.66 37.7023V31.3011H36.6255Z" fill="#203E28"/>
<path d="M42.9589 33.7147V39.3393C42.9589 39.7311 43.0501 40.0179 43.2323 40.1998C43.4286 40.3677 43.7511 40.4516 44.1998 40.4516H45.5669V42.9282H43.7161C41.2343 42.9282 39.9934 41.7249 39.9934 39.3183V33.7147H38.6053V31.3011H39.9934V28.4258H42.9589V31.3011H45.5669V33.7147H42.9589Z" fill="#203E28"/>
<path d="M51.1129 33.7147V39.3393C51.1129 39.7311 51.204 40.0179 51.3863 40.1998C51.5826 40.3677 51.9051 40.4516 52.3537 40.4516H53.7208V42.9282H51.87C49.3882 42.9282 48.1474 41.7249 48.1474 39.3183V33.7147H46.7593V31.3011H48.1474V28.4258H51.1129V31.3011H53.7208V33.7147H51.1129Z" fill="#203E28"/>
<path d="M66.67 36.8628C66.67 37.2825 66.642 37.6603 66.5859 37.9961H58.068C58.1381 38.8356 58.4325 39.4932 58.9513 39.9689C59.4701 40.4447 60.1081 40.6825 60.8652 40.6825C61.9589 40.6825 62.7371 40.2138 63.1998 39.2764H66.3756C66.0391 40.3957 65.3941 41.3191 64.4406 42.0467C63.4872 42.7603 62.3164 43.1171 60.9283 43.1171C59.8066 43.1171 58.7971 42.8722 57.8997 42.3825C57.0164 41.8788 56.3224 41.1722 55.8176 40.2628C55.3268 39.3533 55.0815 38.3039 55.0815 37.1146C55.0815 35.9114 55.3268 34.855 55.8176 33.9455C56.3083 33.0361 56.9954 32.3365 57.8787 31.8468C58.762 31.3571 59.7786 31.1122 60.9283 31.1122C62.036 31.1122 63.0245 31.3501 63.8938 31.8258C64.7772 32.3015 65.4572 32.9801 65.9339 33.8616C66.4246 34.7291 66.67 35.7295 66.67 36.8628ZM63.6204 36.0233C63.6064 35.2677 63.333 34.6661 62.8002 34.2184C62.2673 33.7567 61.6154 33.5258 60.8442 33.5258C60.1151 33.5258 59.4982 33.7497 58.9934 34.1974C58.5027 34.6311 58.2012 35.2398 58.089 36.0233H63.6204Z" fill="#203E28"/>
<path d="M71.7637 33.106C72.1422 32.4904 72.633 32.0077 73.2359 31.6579C73.8528 31.3081 74.5539 31.1332 75.3391 31.1332V34.2184H74.5609C73.6355 34.2184 72.9344 34.4352 72.4577 34.869C71.995 35.3027 71.7637 36.0583 71.7637 37.1356V42.9282H68.8192V31.3011H71.7637V33.106Z" fill="#203E28"/>
<path d="M81.8862 31.1122C82.7556 31.1122 83.5197 31.2871 84.1787 31.6369C84.8377 31.9727 85.3565 32.4135 85.7351 32.9591V31.3011H88.7005V43.0121C88.7005 44.0895 88.4832 45.0479 88.0486 45.8874C87.6139 46.7409 86.9619 47.4125 86.0926 47.9022C85.2233 48.4059 84.1717 48.6577 82.9378 48.6577C81.2833 48.6577 79.9233 48.273 78.8576 47.5034C77.8061 46.7339 77.2102 45.6845 77.0699 44.3553H79.9934C80.1476 44.887 80.4771 45.3067 80.9819 45.6146C81.5007 45.9364 82.1246 46.0973 82.8537 46.0973C83.709 46.0973 84.403 45.8384 84.9359 45.3207C85.4687 44.817 85.7351 44.0475 85.7351 43.0121V41.2072C85.3565 41.7529 84.8307 42.2076 84.1577 42.5714C83.4987 42.9352 82.7415 43.1171 81.8862 43.1171C80.9048 43.1171 80.0074 42.8652 79.1942 42.3615C78.3809 41.8578 77.736 41.1512 77.2592 40.2418C76.7965 39.3183 76.5652 38.262 76.5652 37.0727C76.5652 35.8974 76.7965 34.855 77.2592 33.9455C77.736 33.0361 78.3739 32.3365 79.1731 31.8468C79.9864 31.3571 80.8907 31.1122 81.8862 31.1122ZM85.7351 37.1146C85.7351 36.4011 85.5948 35.7924 85.3144 35.2887C85.034 34.771 84.6554 34.3793 84.1787 34.1134C83.702 33.8336 83.1902 33.6937 82.6434 33.6937C82.0966 33.6937 81.5918 33.8266 81.1291 34.0925C80.6664 34.3583 80.2878 34.7501 79.9934 35.2678C79.7129 35.7714 79.5727 36.3731 79.5727 37.0727C79.5727 37.7723 79.7129 38.3879 79.9934 38.9196C80.2878 39.4373 80.6664 39.836 81.1291 40.1158C81.6058 40.3957 82.1106 40.5356 82.6434 40.5356C83.1902 40.5356 83.702 40.4027 84.1787 40.1368C84.6554 39.857 85.034 39.4652 85.3144 38.9615C85.5948 38.4438 85.7351 37.8282 85.7351 37.1146Z" fill="#203E28"/>
<path d="M102.576 31.3011V42.9282H99.6105V41.459C99.2319 41.9627 98.7342 42.3615 98.1172 42.6553C97.5143 42.9352 96.8553 43.0751 96.1402 43.0751C95.2289 43.0751 94.4226 42.8862 93.7216 42.5084C93.0205 42.1167 92.4667 41.55 92.0601 40.8084C91.6675 40.0529 91.4712 39.1574 91.4712 38.122V31.3011H94.4156V37.7023C94.4156 38.6257 94.647 39.3393 95.1097 39.843C95.5724 40.3327 96.2033 40.5776 97.0025 40.5776C97.8158 40.5776 98.4537 40.3327 98.9164 39.843C99.3791 39.3393 99.6105 38.6257 99.6105 37.7023V31.3011H102.576Z" fill="#203E28"/>
<path d="M104.724 37.0727C104.724 35.8974 104.955 34.855 105.418 33.9455C105.895 33.0361 106.533 32.3365 107.332 31.8468C108.145 31.3571 109.05 31.1122 110.045 31.1122C110.914 31.1122 111.672 31.2871 112.317 31.6369C112.976 31.9867 113.501 32.4275 113.894 32.9591V31.3011H116.859V42.9282H113.894V41.2282C113.515 41.7739 112.99 42.2286 112.317 42.5924C111.658 42.9422 110.893 43.1171 110.024 43.1171C109.043 43.1171 108.145 42.8652 107.332 42.3615C106.533 41.8578 105.895 41.1512 105.418 40.2418C104.955 39.3183 104.724 38.262 104.724 37.0727ZM113.894 37.1146C113.894 36.4011 113.754 35.7924 113.473 35.2887C113.193 34.771 112.814 34.3793 112.338 34.1134C111.861 33.8336 111.349 33.6937 110.802 33.6937C110.255 33.6937 109.751 33.8266 109.288 34.0925C108.825 34.3583 108.447 34.7501 108.152 35.2678C107.872 35.7714 107.732 36.3731 107.732 37.0727C107.732 37.7723 107.872 38.3879 108.152 38.9196C108.447 39.4373 108.825 39.836 109.288 40.1158C109.765 40.3957 110.269 40.5356 110.802 40.5356C111.349 40.5356 111.861 40.4027 112.338 40.1368C112.814 39.857 113.193 39.4652 113.473 38.9615C113.754 38.4438 113.894 37.8282 113.894 37.1146Z" fill="#203E28"/>
<path d="M122.68 33.106C123.058 32.4904 123.549 32.0077 124.152 31.6579C124.769 31.3081 125.47 31.1332 126.255 31.1332V34.2184H125.477C124.551 34.2184 123.85 34.4352 123.374 34.869C122.911 35.3027 122.68 36.0583 122.68 37.1356V42.9282H119.735V31.3011H122.68V33.106Z" fill="#203E28"/>
<path d="M127.481 37.0727C127.481 35.8974 127.712 34.855 128.175 33.9455C128.652 33.0361 129.297 32.3365 130.11 31.8468C130.923 31.3571 131.828 31.1122 132.823 31.1122C133.58 31.1122 134.302 31.2801 134.99 31.6159C135.677 31.9377 136.223 32.3715 136.63 32.9172V27.3975H139.617V42.9282H136.63V41.2072C136.265 41.7809 135.754 42.2426 135.095 42.5924C134.436 42.9422 133.672 43.1171 132.802 43.1171C131.821 43.1171 130.923 42.8652 130.11 42.3615C129.297 41.8578 128.652 41.1512 128.175 40.2418C127.712 39.3183 127.481 38.262 127.481 37.0727ZM136.651 37.1146C136.651 36.4011 136.511 35.7924 136.23 35.2887C135.95 34.771 135.571 34.3793 135.095 34.1134C134.618 33.8336 134.106 33.6937 133.559 33.6937C133.013 33.6937 132.508 33.8266 132.045 34.0925C131.582 34.3583 131.204 34.7501 130.909 35.2678C130.629 35.7714 130.489 36.3731 130.489 37.0727C130.489 37.7723 130.629 38.3879 130.909 38.9196C131.204 39.4373 131.582 39.836 132.045 40.1158C132.522 40.3957 133.027 40.5356 133.559 40.5356C134.106 40.5356 134.618 40.4027 135.095 40.1368C135.571 39.857 135.95 39.4652 136.23 38.9615C136.511 38.4438 136.651 37.8282 136.651 37.1146Z" fill="#203E28"/>
<path d="M18.6754 66.058H12.8273L11.8596 68.8518H8.76721L14.0474 54.1688H17.4763L22.7565 68.8518H19.6431L18.6754 66.058ZM17.876 63.7054L15.7513 57.5717L13.6266 63.7054H17.876Z" fill="#203E28"/>
<path d="M35.7322 57.2146V68.8518H32.7661V67.3814C32.3874 67.8855 31.8895 68.2846 31.2725 68.5787C30.6694 68.8588 30.0103 68.9988 29.295 68.9988C28.3835 68.9988 27.5771 68.8098 26.8758 68.4317C26.1746 68.0396 25.6207 67.4724 25.214 66.7302C24.8213 65.974 24.6249 65.0778 24.6249 64.0415V57.2146H27.5701V63.6214C27.5701 64.5456 27.8015 65.2598 28.2643 65.7639C28.7271 66.2541 29.3582 66.4991 30.1575 66.4991C30.971 66.4991 31.6091 66.2541 32.0719 65.7639C32.5347 65.2598 32.7661 64.5456 32.7661 63.6214V57.2146H35.7322Z" fill="#203E28"/>
<path d="M43.0978 69.0408C42.1441 69.0408 41.2886 68.8728 40.5313 68.5367C39.774 68.1866 39.171 67.7175 38.7222 67.1293C38.2874 66.5412 38.049 65.89 38.0069 65.1758H40.9731C41.0292 65.6239 41.2466 65.995 41.6252 66.2891C42.0179 66.5832 42.5017 66.7302 43.0767 66.7302C43.6377 66.7302 44.0725 66.6182 44.381 66.3941C44.7036 66.1701 44.8648 65.883 44.8648 65.5329C44.8648 65.1548 44.6685 64.8747 44.2758 64.6927C43.8972 64.4966 43.2871 64.2865 42.4456 64.0625C41.5761 63.8524 40.8609 63.6354 40.2999 63.4113C39.753 63.1872 39.2761 62.8441 38.8694 62.382C38.4768 61.9199 38.2804 61.2967 38.2804 60.5125C38.2804 59.8683 38.4627 59.2802 38.8274 58.748C39.206 58.2159 39.7389 57.7958 40.4261 57.4877C41.1274 57.1796 41.9478 57.0256 42.8874 57.0256C44.2758 57.0256 45.3837 57.3757 46.2112 58.0759C47.0386 58.762 47.4944 59.6933 47.5785 60.8696H44.7597C44.7176 60.4075 44.5212 60.0434 44.1706 59.7773C43.8341 59.4972 43.3783 59.3572 42.8033 59.3572C42.2703 59.3572 41.8566 59.4552 41.5621 59.6513C41.2816 59.8473 41.1414 60.1204 41.1414 60.4705C41.1414 60.8626 41.3377 61.1637 41.7304 61.3737C42.1231 61.5698 42.7331 61.7729 43.5606 61.9829C44.402 62.193 45.0962 62.41 45.6432 62.6341C46.1901 62.8582 46.66 63.2082 47.0526 63.6844C47.4593 64.1465 47.6697 64.7627 47.6837 65.5329C47.6837 66.2051 47.4944 66.8072 47.1157 67.3394C46.7511 67.8715 46.2182 68.2916 45.517 68.5997C44.8298 68.8938 44.0234 69.0408 43.0978 69.0408Z" fill="#203E28"/>
<path d="M53.5302 59.6303V65.2598C53.5302 65.6519 53.6214 65.939 53.8037 66.121C54 66.2891 54.3226 66.3731 54.7714 66.3731H56.1388V68.8518H54.2875C51.8052 68.8518 50.5641 67.6475 50.5641 65.2388V59.6303H49.1757V57.2146H50.5641V54.3368H53.5302V57.2146H56.1388V59.6303H53.5302Z" fill="#203E28"/>
<path d="M61.2021 59.0211C61.5808 58.4049 62.0717 57.9218 62.6747 57.5717C63.2918 57.2216 63.993 57.0466 64.7783 57.0466V60.1344H64C63.0744 60.1344 62.3732 60.3515 61.8963 60.7856C61.4335 61.2197 61.2021 61.9759 61.2021 63.0542V68.8518H58.257V57.2146H61.2021V59.0211Z" fill="#203E28"/>
<path d="M66.0047 62.9912C66.0047 61.8149 66.2361 60.7716 66.6989 59.8613C67.1757 58.9511 67.8138 58.2509 68.6132 57.7608C69.4266 57.2706 70.3312 57.0256 71.3269 57.0256C72.1964 57.0256 72.9538 57.2006 73.5989 57.5507C74.258 57.9008 74.7839 58.3419 75.1766 58.8741V57.2146H78.1428V68.8518H75.1766V67.1503C74.798 67.6965 74.272 68.1516 73.5989 68.5157C72.9397 68.8658 72.1754 69.0408 71.3059 69.0408C70.3242 69.0408 69.4266 68.7888 68.6132 68.2846C67.8138 67.7805 67.1757 67.0733 66.6989 66.1631C66.2361 65.2388 66.0047 64.1815 66.0047 62.9912ZM75.1766 63.0332C75.1766 62.319 75.0364 61.7098 74.7559 61.2057C74.4754 60.6876 74.0967 60.2955 73.6199 60.0294C73.1431 59.7493 72.6312 59.6093 72.0843 59.6093C71.5373 59.6093 71.0324 59.7423 70.5696 60.0084C70.1068 60.2744 69.7282 60.6666 69.4337 61.1847C69.1532 61.6888 69.0129 62.291 69.0129 62.9912C69.0129 63.6914 69.1532 64.3075 69.4337 64.8397C69.7282 65.3578 70.1068 65.7569 70.5696 66.037C71.0464 66.3171 71.5513 66.4571 72.0843 66.4571C72.6312 66.4571 73.1431 66.3241 73.6199 66.058C74.0967 65.7779 74.4754 65.3858 74.7559 64.8817C75.0364 64.3636 75.1766 63.7474 75.1766 63.0332Z" fill="#203E28"/>
<path d="M83.9643 53.3076V68.8518H81.0192V53.3076H83.9643Z" fill="#203E28"/>
<path d="M88.3677 55.8282C87.8487 55.8282 87.414 55.6672 87.0634 55.3451C86.7268 55.009 86.5585 54.5959 86.5585 54.1058C86.5585 53.6156 86.7268 53.2095 87.0634 52.8874C87.414 52.5513 87.8487 52.3833 88.3677 52.3833C88.8866 52.3833 89.3143 52.5513 89.6509 52.8874C90.0015 53.2095 90.1768 53.6156 90.1768 54.1058C90.1768 54.5959 90.0015 55.009 89.6509 55.3451C89.3143 55.6672 88.8866 55.8282 88.3677 55.8282ZM89.8192 57.2146V68.8518H86.8741V57.2146H89.8192Z" fill="#203E28"/>
<path d="M91.9716 62.9912C91.9716 61.8149 92.203 60.7716 92.6658 59.8613C93.1427 58.9511 93.7808 58.2509 94.5801 57.7608C95.3936 57.2706 96.2981 57.0256 97.2939 57.0256C98.1634 57.0256 98.9207 57.2006 99.5658 57.5507C100.225 57.9008 100.751 58.3419 101.144 58.8741V57.2146H104.11V68.8518H101.144V67.1503C100.765 67.6965 100.239 68.1516 99.5658 68.5157C98.9066 68.8658 98.1423 69.0408 97.2728 69.0408C96.2911 69.0408 95.3936 68.7888 94.5801 68.2846C93.7808 67.7805 93.1427 67.0733 92.6658 66.1631C92.203 65.2388 91.9716 64.1815 91.9716 62.9912ZM101.144 63.0332C101.144 62.319 101.003 61.7098 100.723 61.2057C100.442 60.6876 100.064 60.2955 99.5868 60.0294C99.11 59.7493 98.5981 59.6093 98.0512 59.6093C97.5042 59.6093 96.9993 59.7423 96.5365 60.0084C96.0737 60.2744 95.6951 60.6666 95.4006 61.1847C95.1201 61.6888 94.9798 62.291 94.9798 62.9912C94.9798 63.6914 95.1201 64.3075 95.4006 64.8397C95.6951 65.3578 96.0737 65.7569 96.5365 66.037C97.0134 66.3171 97.5182 66.4571 98.0512 66.4571C98.5981 66.4571 99.11 66.3241 99.5868 66.058C100.064 65.7779 100.442 65.3858 100.723 64.8817C101.003 64.3636 101.144 63.7474 101.144 63.0332Z" fill="#203E28"/>
<path d="M126.597 18.5855C122.669 18.5855 120.543 16.4577 118.906 14.8218C117.269 13.1848 116.124 12.0398 113.505 12.0398C110.886 12.0398 109.741 13.3492 108.105 14.8218C106.468 16.4588 104.341 18.5855 100.413 18.5855C96.4849 18.5855 94.358 16.4577 92.7212 14.8218C91.0842 13.1848 89.9392 12.0398 87.3206 12.0398C84.702 12.0398 83.5569 13.3492 81.9201 14.8218C80.2831 16.4588 78.1564 18.5855 74.2284 18.5855C70.3004 18.5855 68.1735 16.4577 66.5367 14.8218C64.8997 13.1848 63.7548 12.0398 61.1362 12.0398C58.5175 12.0398 57.3724 13.3492 55.7356 14.8218C54.0986 16.4588 51.9719 18.5855 48.0439 18.5855C44.116 18.5855 41.9891 16.4577 40.3522 14.8218C38.7152 13.1848 37.5703 12.0398 34.9517 12.0398C32.3331 12.0398 31.188 13.3492 29.5511 14.8218C27.9141 16.4588 25.7874 18.5855 21.8595 18.5855C17.9315 18.5855 15.8046 16.4577 14.1678 14.8218C12.5308 13.1848 11.3858 12.0398 8.76721 12.0398V8.76709C12.6952 8.76709 14.8221 10.8949 16.4589 12.5308C18.0959 14.1678 19.2409 15.3128 21.8595 15.3128C24.4782 15.3128 25.6232 14.0034 27.26 12.5308C28.897 10.8938 31.0237 8.76709 34.9517 8.76709C38.8797 8.76709 41.0066 10.8949 42.6434 12.5308C44.2804 14.1678 45.4253 15.3128 48.0439 15.3128C50.6626 15.3128 51.8077 14.0034 53.4445 12.5308C55.0815 10.8938 57.2082 8.76709 61.1362 8.76709C65.0641 8.76709 67.191 10.8949 68.8279 12.5308C70.4649 14.1678 71.6098 15.3128 74.2284 15.3128C76.8471 15.3128 77.9921 14.0034 79.629 12.5308C81.266 10.8938 83.3927 8.76709 87.3206 8.76709C91.2486 8.76709 93.3755 10.8949 95.0123 12.5308C96.6493 14.1678 97.7943 15.3128 100.413 15.3128C103.032 15.3128 104.177 14.0034 105.813 12.5308C107.45 10.8938 109.577 8.76709 113.505 8.76709C117.433 8.76709 119.56 10.8949 121.197 12.5308C122.834 14.1678 123.979 15.3128 126.597 15.3128C129.216 15.3128 130.361 14.0034 131.998 12.5308C133.635 10.8938 135.762 8.76709 139.69 8.76709V12.0398C137.071 12.0398 135.926 13.3492 134.289 14.8218C132.653 16.4577 130.525 18.5855 126.597 18.5855Z" fill="#BFC7BE"/>
</svg>
