<svg width="20" height="21" viewBox="0 0 20 21" fill="none" xmlns="http://www.w3.org/2000/svg">
<path d="M16.9821 15.2132L12.5762 13.7268C12.0277 13.544 11.4201 13.6974 11.025 14.122C10.5059 14.6882 9.63889 14.7531 9.03729 14.2813L8.81906 14.1102C7.40937 13.0014 6.20029 11.6566 5.25065 10.1348C4.82598 9.45655 5.02063 8.57184 5.68712 8.12943L5.752 8.08814C6.3831 7.67527 6.70752 6.9262 6.57772 6.17711L5.982 2.6972C5.90532 2.26073 5.68119 1.86555 5.34502 1.57656C4.86726 1.16958 4.22438 1.01621 3.61685 1.18138L3.54607 1.19907C2.12463 1.57656 0.956747 2.59695 0.402332 3.96533C0.201791 4.45487 0.0897271 4.97391 0.0602349 5.49888L0.0130495 6.47796C-0.045935 7.65172 0.0956215 8.82542 0.425919 9.952L0.691338 10.8544C0.768016 11.1198 0.87418 11.3793 0.998044 11.6271L1.07472 11.7804C2.05381 13.7386 3.43987 15.4667 5.13855 16.8469C6.6426 18.0738 8.30585 19.0882 10.0812 19.8668L10.2051 19.9199C11.1311 20.3269 12.1279 20.5569 13.1424 20.61L13.8443 20.6454C15.0416 20.7044 16.1917 20.1853 16.9349 19.2475C17.2003 18.9172 17.4009 18.5397 17.5365 18.1387L17.8963 17.077C18.1676 16.3102 17.7547 15.4727 16.9821 15.2132L16.9821 15.2132Z" fill="#203E28"/>
<path d="M19.9901 9.88092C19.1231 5.29212 15.8319 1.51157 11.3964 0.0248263C11.1487 -0.0577455 10.8833 0.0720115 10.8007 0.319738C10.7181 0.567464 10.8479 0.832878 11.0956 0.915461C15.2066 2.29565 18.2619 5.79912 19.0643 10.0516C19.1056 10.2758 19.3061 10.435 19.5302 10.435C19.5597 10.435 19.5892 10.435 19.6187 10.4291C19.8723 10.3819 20.0434 10.1342 19.9903 9.88059L19.9901 9.88092Z" fill="#203E28"/>
<path d="M9.9275 6.23583C11.8326 7.07336 13.2482 8.77203 13.7141 10.7893C13.7672 11.0075 13.956 11.1549 14.1742 11.1549C14.2096 11.1549 14.245 11.149 14.2804 11.1431C14.534 11.0842 14.6932 10.8305 14.6343 10.5769C14.1034 8.27071 12.4873 6.32435 10.3109 5.36883C10.075 5.26266 9.79185 5.37473 9.6916 5.61066C9.58543 5.85248 9.6916 6.1356 9.92753 6.23588L9.9275 6.23583Z" fill="#203E28"/>
<path d="M10.4877 3.71179C11.9209 4.24853 13.2067 5.14504 14.2094 6.30699C15.2298 7.48663 15.9317 8.91988 16.2443 10.4416C16.2915 10.6657 16.4861 10.8191 16.7044 10.8191C16.7338 10.8191 16.7692 10.8132 16.7987 10.8073C17.0523 10.7542 17.2175 10.5065 17.1644 10.2529C16.8223 8.57191 16.0438 6.99122 14.9172 5.68772C13.8084 4.40783 12.3928 3.41694 10.8121 2.82709C10.5702 2.73862 10.2989 2.85658 10.2045 3.10431C10.1101 3.35203 10.2458 3.62334 10.4876 3.71184L10.4877 3.71179Z" fill="#203E28"/>
</svg>
