<svg width="64" height="64" viewBox="0 0 64 64" fill="none" xmlns="http://www.w3.org/2000/svg">
<circle cx="32" cy="32" r="32" fill="#5F725D"/>
<path d="M31.5801 55.0482V55.0483C30.7442 55.0483 29.9523 54.7236 29.2977 54.1165L24.3552 49.1259L24.3259 49.0962H24.2842H17.2282C15.4593 49.0962 14.0161 47.6531 14.0161 45.8841L14.0164 38.8763L14.0164 38.8349L13.9871 38.8056L9.04277 33.8616C7.78574 32.6046 7.78574 30.6041 9.04278 29.347L14.0346 24.3552L14.0639 24.3259L14.0639 24.2845L14.0642 17.2282C14.0642 15.4593 15.5074 14.0161 17.2763 14.0161H24.3323H24.374L24.4034 13.9864L29.2988 9.04277C30.5558 7.78574 32.5563 7.78574 33.8133 9.04277L38.8052 14.0346L38.8345 14.0639H38.8759H45.9319C47.7007 14.0639 49.144 15.507 49.144 17.276V24.332V24.3734L49.1733 24.4027L54.1651 29.3945C55.4219 30.6514 55.4221 32.6515 54.1656 33.9085C54.1655 33.9087 54.1653 33.9089 54.1651 33.9091L49.1264 38.8045L49.0961 38.834V38.8762V45.9322C49.0961 47.7011 47.6529 49.1443 45.884 49.1443L38.8762 49.144L38.8347 49.144L38.8054 49.1733L33.8628 54.1163C33.208 54.7235 32.4161 55.0482 31.5801 55.0482ZM10.5819 30.8852L10.5816 30.8855C10.2064 31.2607 10.2064 31.9 10.5816 32.2749C10.5816 32.2749 10.5817 32.2749 10.5817 32.2749L15.9096 37.6029C16.1276 37.8209 16.2165 38.0816 16.2165 38.396V45.9321C16.2165 46.4641 16.6419 46.9442 17.2286 46.9442H24.7648C25.0689 46.9442 25.334 47.0734 25.5618 47.255L30.8859 52.5791C31.2611 52.9543 31.9003 52.9544 32.2752 52.5791C32.2752 52.5791 32.2752 52.5791 32.2752 52.5791L37.6032 47.2511C37.8212 47.0331 38.082 46.9442 38.3963 46.9442H45.9325C46.4644 46.9442 46.9446 46.5188 46.9446 45.9321L46.9443 38.3963C46.9443 38.0922 47.0734 37.8271 47.2551 37.5993L52.5791 32.2752C52.9543 31.9 52.9544 31.2608 52.5791 30.8859C52.5791 30.8859 52.5791 30.8858 52.5791 30.8858L47.2511 25.5575C47.0331 25.3395 46.9443 25.0788 46.9443 24.7644V17.2282C46.9443 16.6963 46.5188 16.2161 45.9322 16.2161L38.3963 16.2165C38.0922 16.2165 37.8271 16.0873 37.5993 15.9057L32.2752 10.5816C31.9 10.2064 31.2608 10.2064 30.8859 10.5816C30.8859 10.5816 30.8859 10.5816 30.8859 10.5816L25.5575 15.9096C25.3395 16.1276 25.0788 16.2165 24.7644 16.2165H17.2283H17.1283L17.1283 16.2693C16.6376 16.3187 16.2162 16.7268 16.2162 17.2764V24.8126C16.2162 25.1166 16.0871 25.3817 15.9055 25.6094L10.5819 30.8852Z" fill="white" stroke="white" stroke-width="0.2"/>
<path d="M31.5802 46.7443C23.2352 46.7443 16.4162 39.9728 16.4162 31.5803C16.4162 23.1881 23.2346 16.4643 31.5802 16.4643C39.9255 16.4643 46.7442 23.2359 46.7442 31.5803C46.7442 39.925 39.9251 46.7443 31.5802 46.7443ZM31.5802 18.6643C24.421 18.6643 18.6162 24.4689 18.6162 31.6283C18.6162 38.7876 24.4208 44.5923 31.5802 44.5923C38.7395 44.5923 44.5442 38.7876 44.5442 31.6283C44.5442 24.4689 38.7395 18.6643 31.5802 18.6643Z" fill="white" stroke="white" stroke-width="0.2"/>
<path d="M32.7282 23.8043V23.882L32.8035 23.9012C34.8284 24.4194 36.3282 26.1593 36.3282 28.2203C36.3282 28.8371 35.7971 29.3683 35.1803 29.3683C34.5635 29.3683 34.0324 28.8371 34.0324 28.2203C34.0324 27.0034 32.9216 26.0083 31.5803 26.0083C30.239 26.0083 29.1282 27.0035 29.1282 28.2203C29.1282 29.4373 30.239 30.4324 31.5803 30.4324C34.1712 30.4324 36.3282 32.4573 36.3282 34.8923C36.3282 36.9534 34.8284 38.6934 32.8035 39.2115L32.7282 39.2307V39.3083V41.4204C32.7282 42.0372 32.1971 42.5683 31.5803 42.5683C30.9635 42.5683 30.4324 42.0372 30.4324 41.4204V39.3083V39.2307L30.3572 39.2115C28.3322 38.6933 26.8324 36.9534 26.8324 34.8923C26.8324 34.2756 27.3635 33.7444 27.9803 33.7444C28.5971 33.7444 29.1282 34.2756 29.1282 34.8923C29.1282 36.1093 30.239 37.1044 31.5803 37.1044C32.9216 37.1044 34.0324 36.1093 34.0324 34.8923C34.0324 33.6754 32.9216 32.6803 31.5803 32.6803C28.9422 32.6803 26.8324 30.656 26.8324 28.2203C26.8324 26.1593 28.3322 24.4193 30.3572 23.9012L30.4324 23.882V23.8043V21.6923C30.4324 21.0755 30.9635 20.5443 31.5803 20.5443C32.1971 20.5443 32.7282 21.0755 32.7282 21.6923V23.8043Z" fill="white" stroke="white" stroke-width="0.2"/>
</svg>
