<svg width="56" height="56" viewBox="0 0 56 56" fill="none" xmlns="http://www.w3.org/2000/svg">
<circle cx="28" cy="27.9996" r="28" fill="#E2F2A8"/>
<path d="M27.9799 48C27.248 48 26.5563 47.7148 25.987 47.1856L21.7978 42.9503H15.8192C14.2736 42.9503 13.0128 41.688 13.0128 40.1404L13.0131 34.1951L8.82365 30.0006C7.72545 28.901 7.72545 27.1501 8.82365 26.0505L13.0533 21.8155L13.0536 15.829C13.0536 14.2815 14.3143 13.0191 15.86 13.0191H21.8386L25.9869 8.82469C27.0851 7.7251 28.8338 7.7251 29.932 8.82469L34.1616 13.0597H40.1403C41.6859 13.0597 42.9467 14.322 42.9467 15.8696V21.8558L47.1764 26.0908C48.2746 27.1904 48.2746 28.9413 47.1764 30.0409L42.9061 34.195V40.1812C42.9061 41.7287 41.6454 42.9911 40.0997 42.9911L34.1619 42.9908L29.9727 47.1856C29.4033 47.7147 28.7117 47.9999 27.9798 47.9999L27.9799 48ZM15.8192 15.0962C15.4124 15.0962 15.0464 15.422 15.0464 15.87V22.2636C15.0464 22.5488 14.9244 22.793 14.7616 22.9964L10.2474 27.4758C9.96253 27.761 9.96253 28.2496 10.2474 28.5345L14.7619 33.0547C14.9653 33.2583 15.0467 33.5026 15.0467 33.7875V40.1811C15.0467 40.5885 15.3721 40.9549 15.8195 40.9549H22.2051C22.4899 40.9549 22.7339 41.0771 22.937 41.2401L27.4515 45.7603C27.7363 46.0455 28.2243 46.0455 28.5089 45.7603L33.0234 41.2401C33.2268 41.0364 33.4708 40.9549 33.7553 40.9549H40.1408C40.5477 40.9549 40.9137 40.6291 40.9137 40.1811L40.9134 33.7878C40.9134 33.5026 41.0354 33.2583 41.1982 33.055L45.7127 28.5348C45.9976 28.2496 45.9976 27.761 45.7127 27.476L41.1982 22.9556C40.9948 22.7519 40.9134 22.5076 40.9134 22.2227V15.8291C40.9134 15.4218 40.588 15.0553 40.1405 15.0553L33.7553 15.0556C33.4705 15.0556 33.2265 14.9334 33.0234 14.7704L28.5089 10.2502C28.224 9.965 27.7361 9.965 27.4515 10.2502L22.9367 14.7704C22.7333 14.9741 22.4893 15.0556 22.2048 15.0556H15.8192L15.8192 15.0962Z" fill="#203E28"/>
<path d="M24.8218 28.3808C24.4979 28.0603 24.0262 27.935 23.5841 28.0524C23.1417 28.1697 22.7965 28.5117 22.678 28.9499C22.5595 29.3877 22.6859 29.8549 23.0095 30.1757L26.838 33.9676C27.0775 34.2069 27.4037 34.3414 27.7441 34.3414C28.0845 34.3414 28.4107 34.2069 28.6502 33.9676L34.9419 25.7764C35.2655 25.4556 35.392 24.9884 35.2735 24.5505C35.155 24.1123 34.8098 23.7704 34.3674 23.653C33.9253 23.5356 33.4536 23.6609 33.1297 23.9814L27.7441 31.2879L24.8218 28.3808Z" fill="#203E28"/>
</svg>
